<svg id="Layer_1" data-name="Layer 1" xmlns="http://www.w3.org/2000/svg" viewBox="0 0 32.64 25.75"><defs><style>.cls-1{fill:#464ea3;}.cls-1,.cls-2{fill-rule:evenodd;}.cls-2{fill:#fff100;}</style></defs><path class="cls-1" d="M17.21,15.62a6.3,6.3,0,0,1,.38,1,3.54,3.54,0,0,0,3.08,1.93,3.81,3.81,0,0,0,3.6-4,3.81,3.81,0,0,0-3.6-4,3.82,3.82,0,0,0-3.6,4,4.42,4.42,0,0,0,.14,1.1M15.1,17.79a9.31,9.31,0,0,1-.38-1,3.53,3.53,0,0,0-3.08-1.93,3.81,3.81,0,0,0-3.6,4,3.81,3.81,0,0,0,3.6,4,3.81,3.81,0,0,0,3.6-4A4.42,4.42,0,0,0,15.1,17.79ZM20.67,7.52c3.48,0,6.3,3.14,6.3,7s-2.82,7-6.3,7a5.78,5.78,0,0,1-3-.81,6.45,6.45,0,0,1-6.08,5.18c-3.48,0-6.3-3.13-6.3-7s2.82-7,6.3-7a5.76,5.76,0,0,1,2.95.81A6.45,6.45,0,0,1,20.67,7.52Z" transform="translate(-0.27 -4)"/><path class="cls-1" d="M7.88,4c3.46,0,6.26,3.1,6.3,6.93h-2.7A3.82,3.82,0,0,0,7.88,7,3.54,3.54,0,0,0,4.82,8.89a3,3,0,0,1,.77,2,2.78,2.78,0,0,1-2.66,2.89A2.78,2.78,0,0,1,.27,10.93,2.88,2.88,0,0,1,2.11,8.18,6.32,6.32,0,0,1,7.88,4" transform="translate(-0.27 -4)"/><path class="cls-2" d="M25.2,29.75c-3.46,0-6.26-3.1-6.3-6.93h2.7a3.82,3.82,0,0,0,3.6,3.93,3.54,3.54,0,0,0,3.06-1.89,3,3,0,0,1-.77-2,2.67,2.67,0,1,1,5.32,0A2.88,2.88,0,0,1,31,25.57a6.32,6.32,0,0,1-5.77,4.18" transform="translate(-0.27 -4)"/><polygon class="cls-2" points="3.42 25.38 0.1 25.38 0.1 21.69 0.93 21.69 0.93 24.45 3.42 24.45 3.42 25.38"/><polygon class="cls-1" points="29.33 0.03 32.64 0.03 32.64 3.71 31.81 3.71 31.81 0.95 29.33 0.95 29.33 0.03"/></svg>