<?xml version="1.0" encoding="utf-8"?>
<!-- Generator: Adobe Illustrator 25.0.0, SVG Export Plug-In . SVG Version: 6.00 Build 0)  -->
<svg version="1.1" id="Layer_1" xmlns="http://www.w3.org/2000/svg" xmlns:xlink="http://www.w3.org/1999/xlink" x="0px" y="0px"
	 width="90.3px" height="71.2px" viewBox="0 0 90.3 71.2" style="enable-background:new 0 0 90.3 71.2;" xml:space="preserve">
<style type="text/css">
	.st0{fill-rule:evenodd;clip-rule:evenodd;fill:#464EA3;}
	.st1{fill-rule:evenodd;clip-rule:evenodd;fill:#FFF100;}
</style>
<path class="st0" d="M46.9,32.2c0.5,0.9,0.8,1.8,1.1,2.7c1.8,3.2,4.8,5.3,8.5,5.3c5.4,0,10-5,10-11s-4.4-11-10-11c-5.4,0-10,5-10,11
	C46.6,30.2,46.6,31.2,46.9,32.2 M41.1,38.1c-0.5-0.9-0.8-1.8-1.1-2.7c-1.8-3.2-4.8-5.3-8.5-5.3c-5.4,0-10,5-10,11s4.4,11,10,11
	c5.4,0,10-5,10-11C41.4,40.2,41.3,39.2,41.1,38.1z M56.4,9.7c9.7,0,17.4,8.6,17.4,19.4s-7.9,19.4-17.4,19.4c-2.9,0-5.7-0.8-8.2-2.3
	c-2,8.3-8.8,14.4-16.8,14.4c-9.7,0-17.4-8.6-17.4-19.4s7.9-19.4,17.4-19.4c2.9,0,5.7,0.8,8.2,2.3C41.6,15.9,48.4,9.7,56.4,9.7z"/>
<path class="st0" d="M21,0c9.5,0,17.4,8.6,17.4,19.2H31c-0.2-6-4.5-10.9-10-10.9c-3.6,0-6.7,2.1-8.5,5.3c1.4,1.5,2.1,3.5,2.1,5.6
	c0,4.4-3.3,8-7.4,8c-3.9,0-7.3-3.6-7.3-8c0-3.6,2.1-6.5,5.1-7.6C7.9,4.7,13.9,0,21,0"/>
<path class="st1" d="M69,71.2c-9.5,0-17.4-8.6-17.4-19.2H59c0.2,6,4.5,10.9,10,10.9c3.6,0,6.7-2.1,8.5-5.3c-1.4-1.5-2.1-3.5-2.1-5.6
	c0-4.4,3.3-8,7.4-8s7.4,3.6,7.4,8c0,3.6-2.1,6.5-5.1,7.6C82.3,66.5,76.1,71.2,69,71.2"/>
<polygon class="st1" points="9.5,70.2 0.3,70.2 0.3,60 2.6,60 2.6,67.8 9.5,67.8 "/>
<polygon class="st0" points="81.2,0 90.3,0 90.3,10.3 88,10.3 88,2.6 81.2,2.6 "/>
</svg>
