<?xml version="1.0" encoding="utf-8"?>
<!-- Generator: Adobe Illustrator 25.0.0, SVG Export Plug-In . SVG Version: 6.00 Build 0)  -->
<svg version="1.1" id="Layer_1" xmlns="http://www.w3.org/2000/svg" xmlns:xlink="http://www.w3.org/1999/xlink" x="0px" y="0px"
	 width="85.1px" height="67.2px" viewBox="0 0 85.1 67.2" style="enable-background:new 0 0 85.1 67.2;" xml:space="preserve">
<style type="text/css">
	.st0{fill-rule:evenodd;clip-rule:evenodd;fill:#464EA3;}
	.st1{fill-rule:evenodd;clip-rule:evenodd;fill:#FFF100;}
</style>
<path class="st0" d="M44.2,30.4c0.4,0.9,0.7,1.7,1,2.6c1.7,3,4.6,5,8,5c5.1,0,9.4-4.7,9.4-10.4s-4.1-10.4-9.4-10.4
	c-5.1,0-9.4,4.7-9.4,10.4C43.9,28.5,43.9,29.4,44.2,30.4 M38.8,35.9c-0.4-0.9-0.7-1.7-1-2.6c-1.7-3-4.6-5-8-5
	c-5.1,0-9.4,4.7-9.4,10.4s4.1,10.4,9.4,10.4c5.1,0,9.4-4.7,9.4-10.4C39.1,37.9,38.9,36.9,38.8,35.9z M53.2,9.1
	c9.1,0,16.4,8.1,16.4,18.3s-7.4,18.3-16.4,18.3c-2.7,0-5.4-0.7-7.7-2.1C43.6,51.3,37.2,57,29.7,57c-9.1,0-16.4-8.1-16.4-18.3
	s7.4-18.3,16.4-18.3c2.7,0,5.4,0.7,7.7,2.1C39.2,15,45.6,9.1,53.2,9.1z"/>
<path class="st0" d="M19.8,0c9,0,16.4,8.1,16.4,18.1h-7C29.1,12.4,25,7.8,19.8,7.8c-3.4,0-6.3,2-8,5c1.3,1.4,2,3.3,2,5.3
	c0,4.1-3.1,7.6-7,7.6c-3.7,0-6.8-3.4-6.8-7.6C0,14.7,2,12,4.8,11C7.4,4.4,13.1,0,19.8,0"/>
<path class="st1" d="M65,67.2c-9,0-16.4-8.1-16.4-18.1h7c0.1,5.7,4.3,10.3,9.4,10.3c3.4,0,6.3-2,8-5c-1.3-1.4-2-3.3-2-5.3
	c0-4.1,3.1-7.6,7-7.6c3.9,0,7,3.4,7,7.6c0,3.4-2,6.1-4.8,7.1C77.6,62.8,71.7,67.2,65,67.2"/>
<polygon class="st1" points="9,66.2 0.3,66.2 0.3,56.6 2.4,56.6 2.4,63.9 9,63.9 "/>
<polygon class="st0" points="76.6,0 85.1,0 85.1,9.7 83,9.7 83,2.4 76.6,2.4 "/>
</svg>
