<?xml version="1.0" encoding="utf-8"?>
<!-- Generator: Adobe Illustrator 25.0.0, SVG Export Plug-In . SVG Version: 6.00 Build 0)  -->
<svg version="1.1" id="Layer_1" xmlns="http://www.w3.org/2000/svg" xmlns:xlink="http://www.w3.org/1999/xlink" x="0px" y="0px"
	 width="59.7px" height="47.1px" viewBox="0 0 59.7 47.1" style="enable-background:new 0 0 59.7 47.1;" xml:space="preserve">
<style type="text/css">
	.st0{fill-rule:evenodd;clip-rule:evenodd;fill:#464EA3;}
	.st1{fill-rule:evenodd;clip-rule:evenodd;fill:#FFF100;}
</style>
<path class="st0" d="M31,21.3c0.3,0.6,0.5,1.2,0.7,1.8c1.2,2.1,3.2,3.5,5.6,3.5c3.6,0,6.6-3.3,6.6-7.3c0-4-2.9-7.3-6.6-7.3
	c-3.6,0-6.6,3.3-6.6,7.3C30.8,20,30.8,20.6,31,21.3 M27.2,25.2c-0.3-0.6-0.5-1.2-0.7-1.8c-1.2-2.1-3.2-3.5-5.6-3.5
	c-3.6,0-6.6,3.3-6.6,7.3c0,4,2.9,7.3,6.6,7.3c3.6,0,6.6-3.3,6.6-7.3C27.4,26.6,27.3,25.9,27.2,25.2z M37.3,6.4
	c6.4,0,11.5,5.7,11.5,12.8c0,7.1-5.2,12.8-11.5,12.8c-1.9,0-3.8-0.5-5.4-1.5c-1.3,5.5-5.8,9.5-11.1,9.5c-6.4,0-11.5-5.7-11.5-12.8
	c0-7.1,5.2-12.8,11.5-12.8c1.9,0,3.8,0.5,5.4,1.5C27.5,10.5,32,6.4,37.3,6.4z"/>
<path class="st0" d="M13.9,0c6.3,0,11.5,5.7,11.5,12.7h-4.9c-0.1-4-3-7.2-6.6-7.2c-2.4,0-4.4,1.4-5.6,3.5c0.9,1,1.4,2.3,1.4,3.7
	c0,2.9-2.2,5.3-4.9,5.3C2.2,18,0,15.6,0,12.7c0-2.4,1.4-4.3,3.4-5C5.2,3.1,9.2,0,13.9,0"/>
<path class="st1" d="M45.6,47.1c-6.3,0-11.5-5.7-11.5-12.7H39c0.1,4,3,7.2,6.6,7.2c2.4,0,4.4-1.4,5.6-3.5c-0.9-1-1.4-2.3-1.4-3.7
	c0-2.9,2.2-5.3,4.9-5.3c2.7,0,4.9,2.4,4.9,5.3c0,2.4-1.4,4.3-3.4,5C54.4,44,50.3,47.1,45.6,47.1"/>
<polygon class="st1" points="6.3,46.4 0.2,46.4 0.2,39.7 1.7,39.7 1.7,44.8 6.3,44.8 "/>
<polygon class="st0" points="53.7,0 59.7,0 59.7,6.8 58.2,6.8 58.2,1.7 53.7,1.7 "/>
</svg>
